<svg xmlns="http://www.w3.org/2000/svg" xmlns:xlink="http://www.w3.org/1999/xlink" width="400" zoomAndPan="magnify" viewBox="0 0 300 112.499997" height="150" preserveAspectRatio="xMidYMid meet" version="1.0"><defs><g/></defs><path fill="#7f7f7f" d="M 245.296875 51.746094 C 245.257812 51.722656 245.21875 51.707031 245.179688 51.6875 C 243.515625 51.136719 241.804688 52.320312 240.910156 53.695312 C 240.035156 54.910156 239.699219 56.894531 240.953125 57.945312 C 241.136719 58.097656 241.359375 58.191406 241.589844 58.246094 C 243.597656 58.578125 245.457031 56.941406 246.121094 55.113281 C 246.636719 53.980469 246.464844 52.355469 245.296875 51.746094 Z M 238.816406 48.347656 C 237.859375 47.863281 236.601562 48.441406 235.960938 49.277344 C 234.675781 50.921875 234.277344 53.613281 235.828125 55.1875 C 235.980469 55.320312 236.160156 55.417969 236.351562 55.488281 C 237.71875 55.949219 239.019531 54.804688 239.585938 53.621094 C 240.367188 52.074219 240.535156 49.890625 239.207031 48.625 C 239.085938 48.507812 238.953125 48.417969 238.816406 48.347656 Z M 246.609375 59.183594 C 244.921875 58.402344 242.914062 59.457031 241.925781 60.921875 C 241.109375 61.921875 240.894531 63.730469 242.097656 64.492188 C 243.855469 65.410156 246.066406 64.152344 246.992188 62.546875 C 247.683594 61.527344 247.757812 59.878906 246.609375 59.183594 Z M 232.113281 51.851562 C 231.421875 51.472656 230.507812 51.527344 229.898438 52.125 C 228.261719 53.722656 228.171875 56.808594 229.957031 58.292969 C 230.714844 58.886719 231.800781 58.628906 232.425781 57.957031 C 233.765625 56.511719 233.910156 54.078125 232.792969 52.492188 C 232.621094 52.21875 232.382812 52 232.113281 51.851562 Z M 237.589844 59.242188 C 236.222656 58.511719 234.464844 58.46875 233.019531 59.042969 C 231.410156 59.75 229.871094 60.75 228.738281 62.125 C 227.773438 63.035156 227.929688 64.761719 229.089844 65.398438 C 230.472656 66.191406 232.203125 65.859375 233.632812 66.539062 C 234.914062 66.992188 235.640625 68.1875 236.480469 69.167969 C 237.175781 70.050781 238.507812 70.574219 239.5 69.832031 C 240.40625 69.015625 240.449219 67.652344 240.488281 66.515625 C 240.363281 64.574219 240.214844 62.523438 239.21875 60.816406 C 238.828125 60.121094 238.253906 59.597656 237.589844 59.242188 Z M 237.589844 59.242188 " fill-opacity="1" fill-rule="nonzero"/><path fill="#7f7f7f" d="M 270.207031 13.738281 C 270.167969 13.71875 270.128906 13.699219 270.089844 13.683594 C 268.429688 13.132812 266.71875 14.316406 265.824219 15.691406 C 264.945312 16.902344 264.613281 18.886719 265.867188 19.941406 C 266.050781 20.089844 266.273438 20.1875 266.5 20.238281 C 268.511719 20.574219 270.371094 18.9375 271.03125 17.109375 C 271.546875 15.976562 271.375 14.347656 270.207031 13.738281 Z M 263.730469 10.34375 C 262.773438 9.859375 261.515625 10.4375 260.875 11.269531 C 259.585938 12.914062 259.1875 15.605469 260.738281 17.179688 C 260.894531 17.3125 261.070312 17.414062 261.261719 17.480469 C 262.632812 17.945312 263.933594 16.796875 264.5 15.613281 C 265.28125 14.066406 265.445312 11.886719 264.117188 10.617188 C 263.996094 10.503906 263.867188 10.410156 263.730469 10.34375 Z M 271.523438 21.175781 C 269.835938 20.398438 267.824219 21.453125 266.835938 22.914062 C 266.019531 23.914062 265.804688 25.722656 267.011719 26.488281 C 268.769531 27.40625 270.980469 26.148438 271.902344 24.542969 C 272.59375 23.519531 272.671875 21.871094 271.523438 21.175781 Z M 257.023438 13.847656 C 256.332031 13.46875 255.421875 13.523438 254.808594 14.117188 C 253.171875 15.714844 253.082031 18.804688 254.871094 20.285156 C 255.625 20.882812 256.710938 20.625 257.339844 19.949219 C 258.679688 18.507812 258.820312 16.070312 257.703125 14.488281 C 257.53125 14.210938 257.292969 13.996094 257.023438 13.847656 Z M 262.5 21.238281 C 261.136719 20.507812 259.375 20.464844 257.929688 21.035156 C 256.324219 21.746094 254.78125 22.742188 253.652344 24.121094 C 252.683594 25.027344 252.84375 26.757812 254.003906 27.390625 C 255.382812 28.1875 257.113281 27.855469 258.546875 28.53125 C 259.828125 28.984375 260.550781 30.183594 261.394531 31.164062 C 262.089844 32.042969 263.421875 32.566406 264.414062 31.824219 C 265.320312 31.011719 265.359375 29.644531 265.398438 28.511719 C 265.273438 26.566406 265.125 24.515625 264.132812 22.808594 C 263.738281 22.117188 263.167969 21.59375 262.5 21.238281 Z M 262.5 21.238281 " fill-opacity="1" fill-rule="nonzero"/><path fill="#7f7f7f" d="M 274.296875 44.695312 C 274.257812 44.675781 274.21875 44.65625 274.179688 44.640625 C 272.515625 44.089844 270.804688 45.273438 269.914062 46.648438 C 269.035156 47.859375 268.699219 49.84375 269.957031 50.898438 C 270.136719 51.046875 270.359375 51.144531 270.589844 51.195312 C 272.601562 51.53125 274.457031 49.894531 275.121094 48.066406 C 275.636719 46.933594 275.464844 45.304688 274.296875 44.695312 Z M 267.820312 41.300781 C 266.863281 40.816406 265.605469 41.394531 264.964844 42.226562 C 263.675781 43.875 263.277344 46.5625 264.828125 48.136719 C 264.980469 48.269531 265.160156 48.371094 265.351562 48.4375 C 266.722656 48.902344 268.019531 47.753906 268.589844 46.570312 C 269.367188 45.027344 269.535156 42.84375 268.207031 41.574219 C 268.085938 41.460938 267.957031 41.367188 267.820312 41.300781 Z M 275.609375 52.132812 C 273.925781 51.355469 271.914062 52.410156 270.925781 53.871094 C 270.109375 54.871094 269.894531 56.679688 271.101562 57.445312 C 272.859375 58.363281 275.066406 57.105469 275.992188 55.5 C 276.683594 54.476562 276.761719 52.828125 275.609375 52.132812 Z M 261.113281 44.804688 C 260.421875 44.425781 259.511719 44.480469 258.898438 45.078125 C 257.261719 46.671875 257.171875 49.761719 258.957031 51.242188 C 259.714844 51.839844 260.800781 51.582031 261.429688 50.90625 C 262.765625 49.464844 262.910156 47.03125 261.792969 45.445312 C 261.621094 45.167969 261.382812 44.953125 261.113281 44.804688 Z M 266.589844 52.195312 C 265.226562 51.464844 263.464844 51.421875 262.019531 51.996094 C 260.414062 52.703125 258.871094 53.703125 257.738281 55.078125 C 256.773438 55.984375 256.929688 57.714844 258.09375 58.347656 C 259.472656 59.144531 261.203125 58.8125 262.636719 59.488281 C 263.917969 59.945312 264.640625 61.140625 265.484375 62.121094 C 266.175781 63 267.507812 63.523438 268.503906 62.78125 C 269.40625 61.96875 269.449219 60.601562 269.488281 59.46875 C 269.363281 57.523438 269.214844 55.472656 268.21875 53.765625 C 267.828125 53.074219 267.253906 52.550781 266.589844 52.195312 Z M 266.589844 52.195312 " fill-opacity="1" fill-rule="nonzero"/><path fill="#7f7f7f" d="M 252.703125 83.996094 C 252.664062 83.976562 252.625 83.957031 252.585938 83.941406 C 250.921875 83.390625 249.210938 84.574219 248.316406 85.949219 C 247.441406 87.160156 247.105469 89.144531 248.359375 90.199219 C 248.542969 90.347656 248.765625 90.445312 248.996094 90.496094 C 251.003906 90.832031 252.863281 89.195312 253.527344 87.367188 C 254.042969 86.234375 253.867188 84.605469 252.699219 83.996094 Z M 246.222656 80.601562 C 245.265625 80.117188 244.007812 80.695312 243.367188 81.53125 C 242.078125 83.175781 241.683594 85.867188 243.234375 87.4375 C 243.386719 87.570312 243.566406 87.671875 243.753906 87.738281 C 245.125 88.203125 246.425781 87.058594 246.992188 85.871094 C 247.773438 84.328125 247.941406 82.144531 246.613281 80.875 C 246.492188 80.761719 246.359375 80.671875 246.222656 80.601562 Z M 254.015625 91.4375 C 252.328125 90.65625 250.320312 91.710938 249.328125 93.171875 C 248.515625 94.171875 248.300781 95.980469 249.503906 96.746094 C 251.261719 97.664062 253.472656 96.40625 254.398438 94.800781 C 255.085938 93.777344 255.164062 92.132812 254.015625 91.4375 Z M 239.519531 84.105469 C 238.824219 83.726562 237.914062 83.78125 237.300781 84.378906 C 235.664062 85.972656 235.578125 89.0625 237.363281 90.546875 C 238.121094 91.140625 239.203125 90.882812 239.832031 90.210938 C 241.171875 88.765625 241.316406 86.332031 240.199219 84.746094 C 240.027344 84.472656 239.789062 84.253906 239.519531 84.105469 Z M 244.996094 91.496094 C 243.628906 90.765625 241.867188 90.722656 240.425781 91.296875 C 238.816406 92.003906 237.277344 93.003906 236.144531 94.378906 C 235.179688 95.285156 235.335938 97.015625 236.496094 97.648438 C 237.878906 98.445312 239.605469 98.113281 241.039062 98.792969 C 242.320312 99.246094 243.042969 100.441406 243.886719 101.421875 C 244.582031 102.304688 245.914062 102.824219 246.90625 102.082031 C 247.8125 101.269531 247.855469 99.902344 247.890625 98.769531 C 247.769531 96.828125 247.621094 94.773438 246.625 93.066406 C 246.230469 92.375 245.660156 91.851562 244.996094 91.496094 Z M 244.996094 91.496094 " fill-opacity="1" fill-rule="nonzero"/><g fill="#78b8c6" fill-opacity="1"><g transform="translate(-1.911584, 75.835387)"><g><path d="M 24.90625 -54.890625 C 13.351562 -54.890625 6.558594 -45.988281 4.761719 -18.347656 C 4.527344 -14.757812 4.449219 -10.929688 4.371094 -6.714844 C 4.292969 -2.34375 6.636719 0 10.851562 0 C 15.070312 0 17.410156 -2.34375 17.410156 -6.636719 C 17.410156 -8.589844 17.488281 -10.382812 17.488281 -12.101562 L 31.308594 -12.101562 C 31.386719 -10.152344 31.386719 -8.199219 31.386719 -6.089844 C 31.386719 -2.109375 33.730469 0 38.023438 0 L 39.195312 0 C 43.492188 0 45.832031 -2.5 45.753906 -7.027344 C 45.207031 -43.570312 38.492188 -54.890625 24.90625 -54.890625 Z M 17.644531 -21.394531 C 18.191406 -38.882812 19.832031 -43.882812 23.816406 -43.882812 C 27.71875 -43.882812 30.0625 -38.882812 30.996094 -21.394531 Z M 17.644531 -21.394531 "/></g></g></g><g fill="#78b8c6" fill-opacity="1"><g transform="translate(44.074066, 75.835387)"><g><path d="M 23.660156 0.078125 C 41.382812 0 48.722656 -8.824219 48.722656 -27.796875 C 48.722656 -46.847656 41.382812 -54.109375 23.660156 -54.109375 L 12.648438 -54.109375 C 8.355469 -54.109375 6.011719 -51.6875 6.011719 -47.160156 C 6.011719 -23.503906 5.933594 -13.585938 5.855469 -6.480469 C 5.855469 -2.265625 8.199219 0 12.492188 0 Z M 20.535156 -10.773438 C 20.457031 -13.429688 20.457031 -16.320312 20.457031 -19.128906 C 20.457031 -32.480469 20.457031 -37.945312 20.535156 -43.335938 L 23.347656 -43.335938 C 31.777344 -43.335938 34.277344 -39.039062 34.277344 -27.09375 C 34.277344 -16.632812 31.464844 -10.773438 23.347656 -10.773438 Z M 20.535156 -10.773438 "/></g></g></g><g fill="#78b8c6" fill-opacity="1"><g transform="translate(92.558121, 75.835387)"><g><path d="M 26.859375 0.78125 C 42.164062 0.78125 49.738281 -8.511719 49.738281 -27.09375 C 49.738281 -45.597656 42.164062 -54.890625 26.859375 -54.890625 C 11.554688 -54.890625 3.902344 -45.597656 3.902344 -27.09375 C 3.902344 -8.511719 11.554688 0.78125 26.859375 0.78125 Z M 26.859375 -9.761719 C 20.691406 -9.761719 18.816406 -13.820312 18.816406 -27.09375 C 18.816406 -40.289062 20.691406 -44.351562 26.859375 -44.351562 C 33.027344 -44.351562 34.824219 -40.289062 34.824219 -27.09375 C 34.824219 -13.820312 33.027344 -9.761719 26.859375 -9.761719 Z M 26.859375 -9.761719 "/></g></g></g><g fill="#78b8c6" fill-opacity="1"><g transform="translate(142.135218, 75.835387)"><g><path d="M 12.492188 0 L 13.898438 0 C 18.191406 0 20.535156 -2.34375 20.535156 -6.636719 C 20.457031 -9.839844 20.457031 -13.039062 20.457031 -16.242188 L 23.347656 -16.242188 C 38.882812 -16.242188 48.566406 -24.28125 48.566406 -37.089844 C 48.566406 -49.035156 41.773438 -54.109375 25.921875 -54.109375 L 12.492188 -54.109375 C 8.199219 -54.109375 5.855469 -51.765625 5.855469 -47.472656 C 5.933594 -40.679688 6.011719 -33.886719 6.011719 -27.09375 C 6.011719 -20.222656 5.933594 -13.429688 5.855469 -6.636719 C 5.855469 -2.34375 8.199219 0 12.492188 0 Z M 20.457031 -27.328125 C 20.457031 -35.058594 20.457031 -39.195312 20.535156 -43.335938 L 24.28125 -43.335938 C 30.765625 -43.335938 33.496094 -41.304688 33.496094 -36.464844 C 33.496094 -29.984375 30.453125 -27.328125 23.113281 -27.328125 Z M 20.457031 -27.328125 "/></g></g></g><g fill="#78b8c6" fill-opacity="1"><g transform="translate(189.682366, 75.835387)"><g><path d="M 43.804688 -48.878906 C 43.804688 -52.3125 41.460938 -54.109375 37.167969 -54.109375 L 8.589844 -54.109375 C 4.292969 -54.109375 1.953125 -52.234375 1.953125 -48.878906 C 1.953125 -45.519531 4.292969 -43.570312 8.667969 -43.570312 C 11.007812 -43.648438 13.273438 -43.648438 15.460938 -43.648438 C 15.460938 -38.179688 15.539062 -32.636719 15.539062 -27.09375 C 15.539062 -20.222656 15.460938 -13.429688 15.382812 -6.636719 C 15.382812 -2.34375 17.722656 0 22.019531 0 L 23.425781 0 C 27.71875 0 30.0625 -2.34375 29.984375 -6.636719 C 29.984375 -13.507812 29.984375 -20.222656 29.984375 -27.09375 L 29.984375 -43.648438 C 32.324219 -43.648438 34.589844 -43.648438 37.089844 -43.570312 C 41.460938 -43.570312 43.804688 -45.519531 43.804688 -48.878906 Z M 43.804688 -48.878906 "/></g></g></g><g fill="#ffcfe3" fill-opacity="1"><g transform="translate(236.957611, 75.109902)"><g><path d="M 14.085938 -10.601562 C 14.0625 -10.601562 14.019531 -10.601562 13.976562 -10.601562 C 13.929688 -10.734375 13.578125 -12.367188 13.535156 -12.496094 C 13.050781 -14.546875 12.476562 -17.082031 12.058594 -18.605469 C 10.800781 -23.1875 5.222656 -22.792969 3.546875 -21.203125 C 3.128906 -18.78125 2.667969 -16.355469 2.269531 -13.910156 C 1.851562 -11.308594 1.191406 -8.574219 0.835938 -5.972656 C -0.0664062 0.308594 4.253906 1.300781 7.847656 -0.640625 C 8.066406 -4.078125 8.242188 -6.722656 8.484375 -10.09375 C 8.75 -9.347656 9.71875 -4.980469 10.25 -2.867188 C 11.152344 0.75 15.78125 0.0898438 17.238281 -0.816406 C 17.875 -3.371094 18.472656 -5.953125 19.066406 -8.507812 C 19.175781 -8.972656 19.265625 -9.410156 19.351562 -9.875 C 19.398438 -9.875 19.464844 -9.875 19.507812 -9.851562 C 19.640625 -6.480469 19.484375 -5.554688 19.773438 -2.929688 C 20.167969 0.574219 24.863281 1.5 27.265625 -1.609375 C 26.980469 -4.101562 26.714844 -6.261719 26.429688 -8.75 C 26.121094 -11.351562 25.613281 -15.671875 25.394531 -17.347656 C 24.820312 -21.691406 20.234375 -23.363281 16.6875 -21.074219 C 16.554688 -20.632812 16.378906 -20.210938 16.265625 -19.792969 C 15.582031 -16.863281 14.902344 -13.953125 14.21875 -11.019531 C 14.195312 -10.890625 14.128906 -10.757812 14.085938 -10.601562 Z M 14.085938 -10.601562 "/></g></g></g><g fill="#ffcfe3" fill-opacity="1"><g transform="translate(264.155288, 75.109902)"><g><path d="M 1.210938 -5.089844 C 1.386719 -2.09375 2.292969 -0.617188 4.363281 -0.0898438 C 5.953125 0.285156 11.703125 0.242188 13.535156 0 C 17.722656 -0.550781 18.296875 -4.363281 16.621094 -6.722656 C 14.261719 -6.722656 11.902344 -6.722656 9.542969 -6.722656 C 9.367188 -6.722656 9.191406 -6.722656 9.039062 -6.722656 C 9.039062 -7.1875 9.039062 -7.582031 9.039062 -8.066406 C 11.085938 -8.066406 11.75 -8.023438 12.871094 -8.066406 C 16.113281 -8.222656 17.125 -10.777344 15.804688 -13.710938 C 13.929688 -14.304688 10.292969 -14.0625 9.015625 -14.0625 C 9.015625 -14.503906 9.015625 -14.855469 9.015625 -15.210938 C 11.859375 -15.210938 12.367188 -15.210938 13.554688 -15.210938 C 18.867188 -15.210938 18.296875 -20.675781 17.480469 -21.84375 C 13.554688 -22.152344 5.246094 -22.242188 1.566406 -21.867188 C 1.125 -18.140625 1.035156 -8.113281 1.210938 -5.089844 Z M 1.210938 -5.089844 "/></g></g></g><path stroke-linecap="butt" transform="matrix(0.304706, 0, 0, 0.304706, 173.944388, 53.008172)" fill="none" stroke-linejoin="miter" d="M 251.488043 36.214611 C 251.411124 36.214611 251.282927 36.214611 251.12909 36.214611 C 250.988073 35.76592 249.821476 30.420085 249.693278 29.997033 C 248.103629 23.266665 246.219126 14.946649 244.847413 9.934127 C 240.706634 -5.116258 222.400033 -3.808644 216.926001 1.408994 C 215.541468 9.357238 214.003098 17.331122 212.708303 25.356284 C 211.33659 33.881417 209.157233 42.868061 208.016275 51.393194 C 205.054914 72.007349 219.220736 75.263566 231.014904 68.90497 C 231.73281 57.623592 232.309699 48.931802 233.104523 37.855539 C 233.976266 40.316931 237.155564 54.64941 238.91187 61.597714 C 241.873231 73.468801 257.051814 71.289444 261.82076 68.328082 C 263.948838 59.931146 265.884621 51.470112 267.833222 43.073177 C 268.204995 41.573266 268.499849 40.111815 268.794703 38.599085 C 268.922901 38.599085 269.140837 38.599085 269.294674 38.650364 C 269.717725 49.726626 269.217755 52.777727 270.140777 61.379778 C 271.474031 72.879092 286.857729 75.930193 294.754694 65.725673 C 293.806033 57.546673 292.94711 50.444532 291.998448 42.278352 C 290.998508 33.75322 289.319121 19.548938 288.614035 14.074906 C 286.729532 -0.180655 271.679147 -5.693147 260.025995 1.832046 C 259.602944 3.293497 259.013235 4.66521 258.641463 6.036923 C 256.423646 15.664554 254.16737 25.189628 251.923914 34.842898 C 251.859816 35.26595 251.62906 35.689002 251.488043 36.214611 Z M 298.498061 54.277637 C 299.07495 64.136024 302.049131 68.981889 308.856418 70.712555 C 314.048416 71.930431 332.931906 71.789414 338.957187 70.994589 C 352.674318 69.199825 354.558821 56.66211 349.071969 48.931802 C 341.341661 48.931802 333.598533 48.931802 325.842585 48.931802 C 325.278516 48.931802 324.701627 48.931802 324.188837 48.931802 C 324.188837 47.419072 324.188837 46.124277 324.188837 44.534628 C 330.919205 44.534628 333.072923 44.662826 336.77783 44.534628 C 347.405402 44.009019 350.738536 35.637723 346.392642 26.022911 C 340.251982 24.06149 328.303976 24.856314 324.111919 24.856314 C 324.111919 23.394863 324.111919 22.253905 324.111919 21.087308 C 333.444696 21.087308 335.111263 21.087308 339.008466 21.087308 C 356.430505 21.087308 354.558821 3.15248 351.879494 -0.680625 C 339.008466 -1.693385 311.740861 -1.988239 299.664658 -0.770363 C 298.203207 11.472497 297.921172 44.380791 298.498061 54.277637 Z M 298.498061 54.277637 " stroke="#ef81af" stroke-width="2.034728" stroke-opacity="1" stroke-miterlimit="4"/></svg>